<svg width="21" height="21" viewBox="0 0 21 21" fill="none" xmlns="http://www.w3.org/2000/svg">
<path fill-rule="evenodd" clip-rule="evenodd" d="M15.2857 5.0289C15.5459 5.25573 15.5729 5.65053 15.3461 5.91072L10.0336 12.0045C9.80678 12.2647 9.41198 12.2917 9.15179 12.0649C8.8916 11.838 8.86456 11.4432 9.09139 11.183L14.4039 5.0893C14.6307 4.82911 15.0255 4.80207 15.2857 5.0289ZM19.0366 5.02965C19.2963 5.25695 19.3227 5.6518 19.0954 5.91157L10.3454 15.9116C10.2315 16.0418 10.0687 16.1189 9.8958 16.1247C9.72291 16.1304 9.55537 16.0643 9.43306 15.9419L5.68306 12.1919C5.43898 11.9479 5.43898 11.5521 5.68306 11.3081C5.92714 11.064 6.32286 11.064 6.56694 11.3081L9.84456 14.5857L18.1546 5.08844C18.3819 4.82867 18.7768 4.80235 19.0366 5.02965ZM1.93306 11.3081C2.17714 11.064 2.57286 11.064 2.81694 11.3081L6.56694 15.0581C6.81102 15.3021 6.81102 15.6979 6.56694 15.9419C6.32286 16.186 5.92714 16.186 5.68306 15.9419L1.93306 12.1919C1.68898 11.9479 1.68898 11.5521 1.93306 11.3081Z" fill="#EDF2F4"/>
</svg>
