<svg width="20" height="20" viewBox="0 0 20 20" fill="none" xmlns="http://www.w3.org/2000/svg">
<path d="M9.99998 6.11112C9.63197 6.11687 9.26668 6.17534 8.91526 6.28473C9.07782 6.57061 9.16437 6.89338 9.16665 7.22223C9.16665 7.47758 9.11635 7.73043 9.01864 7.96634C8.92092 8.20225 8.77769 8.4166 8.59713 8.59716C8.41657 8.77772 8.20222 8.92095 7.96631 9.01866C7.7304 9.11638 7.47755 9.16668 7.2222 9.16668C6.89335 9.16439 6.57058 9.07784 6.2847 8.91529C6.05916 9.69751 6.08545 10.5309 6.35984 11.2973C6.63424 12.0638 7.14283 12.7245 7.81358 13.1858C8.48433 13.6471 9.28323 13.8857 10.0971 13.8678C10.911 13.8499 11.6986 13.5763 12.3484 13.0859C12.9982 12.5954 13.4772 11.913 13.7176 11.1352C13.9579 10.3574 13.9475 9.52371 13.6877 8.75219C13.4279 7.98066 12.932 7.31042 12.2701 6.83642C11.6083 6.36241 10.8141 6.10866 9.99998 6.11112ZM19.8791 9.49307C17.9962 5.81911 14.2684 3.33334 9.99998 3.33334C5.73158 3.33334 2.00276 5.82084 0.120814 9.49341C0.0413845 9.65053 0 9.82413 0 10.0002C0 10.1762 0.0413845 10.3498 0.120814 10.507C2.0038 14.1809 5.73158 16.6667 9.99998 16.6667C14.2684 16.6667 17.9972 14.1792 19.8791 10.5066C19.9586 10.3495 20 10.1759 20 9.99984C20 9.82378 19.9586 9.65019 19.8791 9.49307ZM9.99998 15C6.57463 15 3.43436 13.0903 1.73852 10C3.43436 6.90973 6.57429 5.00001 9.99998 5.00001C13.4257 5.00001 16.5656 6.90973 18.2614 10C16.566 13.0903 13.4257 15 9.99998 15Z" fill="#31BF43"/>
</svg>
